<svg xmlns="http://www.w3.org/2000/svg" width="933.333" height="933.333" version="1.0" viewBox="0 0 700 700"><path d="M327.8.5c-.2.1-4.1.5-8.8.9-8.7.7-10.5.9-22.5 2.7-11.6 1.8-12.3 1.9-19.2 3.5-18.4 4.2-24.8 5.9-36.9 9.9-26.4 8.8-53.8 21.6-75.9 35.6-34.6 21.7-65.5 49.7-91 82.4-23.8 30.4-43.2 66.8-55.9 104.7-3.1 9.4-7.9 26.7-9.1 32.9-.3 1.3-1.1 5.8-2 9.9-2.9 14.7-3.6 20-5.2 37-1.5 16.4-.8 58.9 1.2 71.1.2 1.3.6 4.6 1 7.4 1.1 9.2 1.6 11.9 4.7 26 7 32.8 22.6 73.6 37.3 97.9 1.9 3.2 3.5 6.1 3.5 6.3 0 .3 4.2 6.9 9.4 14.6 8.3 12.5 24 33.1 30 39.3 22.7 23.7 37.3 37.1 53.6 48.9 3 2.2 5.7 4.3 5.8 4.7.2.5.8.8 1.4.8 1.1 0 10.1 6.1 10.6 7.2.2.5.8.8 1.4.8.6 0 3.4 1.5 6.2 3.4 15.1 9.9 44.9 24.2 65.8 31.5 12.8 4.4 32.1 9.9 45.3 12.7 4.6 1 23.1 4.2 24.5 4.2.8 0 3.1.3 5 .6 20.3 3.2 68.8 2.8 90.7-.8 2.1-.4 5.2-.8 6.8-1 15.7-2 44-9.3 64.5-16.8 18.1-6.6 50.3-21.8 56.9-26.9 1.3-1.1 2.8-1.9 3.3-1.9s1.4-.4 2.1-1c.7-.5 6.2-4.3 12.4-8.4 25.6-17.1 49.1-37.6 67.6-59.1 3.3-3.9 6.3-7.2 6.7-7.5 1.7-1.3 18.1-23.6 24.5-33.5 21.9-33.6 40.6-77.9 48.1-114 1.6-7.9 5.4-30.1 5.9-35 .4-3.3.9-7.1 1.1-8.5.9-4.7 1.1-52.5.4-60.5-1.3-13-2.1-20.2-2.5-22.7-.3-1.3-.8-4.3-1.1-6.8-.9-6.7-7-33.5-9.4-41.2-1.1-3.7-2.1-7-2.1-7.3 0-.2-1.6-4.9-3.5-10.2-22.2-61.5-57.8-112.5-107.4-154.1-6.6-5.6-30.4-23-35.1-25.7-23.5-13.7-50-27.5-52.7-27.5-.4 0-2.6-.8-4.8-1.9-9.6-4.6-39.1-13.6-56.2-17.2-5.4-1.1-10.6-2.2-11.7-2.5-1.1-.2-3.8-.6-6-.9-2.2-.3-5.1-.7-6.5-1-1.3-.2-5.2-.7-8.6-1.1-3.3-.3-7.4-.8-9-1-3.2-.5-54-1.4-54.6-.9z"/></svg>